<svg xmlns="http://www.w3.org/2000/svg" xmlns:xlink="http://www.w3.org/1999/xlink" width="53" height="53" viewBox="0 0 53 53">
    <defs>
        <circle id="a" cx="26.5" cy="26.5" r="26.5"/>
    </defs>
    <g fill="none" fill-rule="evenodd">
        <mask id="b" fill="#fff">
            <use xlink:href="#a"/>
        </mask>
        <use fill="#6672FF" fill-rule="nonzero" xlink:href="#a"/>
        <circle cx="21" cy="13" r="21" fill="#7681FF" fill-rule="nonzero" mask="url(#b)"/>
        <circle cx="32" cy="21" r="21" fill="#939CFF" fill-rule="nonzero" mask="url(#b)"/>
        <path fill="#FFF" d="M36.632 24.644l-.252 1.296-1.692.18-2.52 11.916h-5.184l2.412-11.412c-2.088.216-4.176.36-6.228.468-1.8 4.896-2.916 9.972-2.916 12.996 0 1.836.468 1.692.504 2.016-2.484-.144-4.824-.216-4.824-4.032 0-2.412 1.296-6.516 3.384-10.8H17.48c-4.572 0-6.48-1.764-6.48-3.312 0-2.88 4.5-3.24 6.228-3.24 1.944 0 3.636.324 5.256.864C26.12 15.86 30.728 11 34.94 11c.864 0 2.016.18 2.88.54l-2.844 13.32c.54-.072 1.08-.144 1.656-.216zM25.04 22.628a87.246 87.246 0 0 1 4.284 2.304l.36.216 2.484-11.664c-2.556 1.116-5.076 4.788-7.128 9.144zm-3.096-.216c-1.224-.36-2.412-.576-3.384-.576-2.808 0-4.5.648-4.5 1.8 0 1.008 1.476 2.016 4.608 2.016h1.44a73.806 73.806 0 0 1 1.836-3.24zm2.736.972l-.936 2.232c1.728-.036 3.42-.108 5.184-.216a45.344 45.344 0 0 0-4.248-2.016z" mask="url(#b)"/>
    </g>
</svg>
