<svg xmlns="http://www.w3.org/2000/svg" xmlns:xlink="http://www.w3.org/1999/xlink" width="179" height="53" viewBox="0 0 179 53">
    <defs>
        <circle id="a" cx="26.5" cy="26.5" r="26.5"/>
    </defs>
    <g fill="none" fill-rule="evenodd">
        <path fill="#6E7AFF" d="M83.632 21.644l-.252 1.296-1.692.18-2.52 11.916h-5.184l2.412-11.412c-2.088.216-4.176.36-6.228.468-1.8 4.896-2.916 9.972-2.916 12.996 0 1.836.468 1.692.504 2.016-2.484-.144-4.824-.216-4.824-4.032 0-2.412 1.296-6.516 3.384-10.8H64.48c-4.572 0-6.48-1.764-6.48-3.312 0-2.88 4.5-3.24 6.228-3.24 1.944 0 3.636.324 5.256.864C73.12 12.86 77.728 8 81.94 8c.864 0 2.016.18 2.88.54l-2.844 13.32c.54-.072 1.08-.144 1.656-.216zM72.04 19.628a87.246 87.246 0 0 1 4.284 2.304l.36.216 2.484-11.664c-2.556 1.116-5.076 4.788-7.128 9.144zm-3.096-.216c-1.224-.36-2.412-.576-3.384-.576-2.808 0-4.5.648-4.5 1.8 0 1.008 1.476 2.016 4.608 2.016h1.44a73.806 73.806 0 0 1 1.836-3.24zm2.736.972l-.936 2.232c1.728-.036 3.42-.108 5.184-.216a45.344 45.344 0 0 0-4.248-2.016zm14.688-3.348h5.184l-.144.684c.756-.396 1.62-.648 2.52-.648 3.744 0 5.508 1.332 5.508 5.04 0 .756-.072 1.584-.216 2.52C98.104 32.372 95.008 35 91.336 35c-1.188 0-2.304-.396-3.384-1.08l-1.872 8.82-5.436 1.296 5.724-27zm4.392 15.3c1.8 0 2.664-1.548 3.852-7.272.324-1.584.468-2.772.468-3.636 0-2.16-.864-2.592-2.016-2.592-.684 0-1.368.288-2.052.756L88.42 31.688c.864.648 1.764.648 2.34.648zm11.988-15.3h5.184l-.144.684c.756-.396 1.62-.648 2.52-.648 3.744 0 5.508 1.332 5.508 5.04 0 .756-.072 1.584-.216 2.52-1.116 7.74-4.212 10.368-7.884 10.368-1.188 0-2.304-.396-3.384-1.08l-1.872 8.82-5.436 1.296 5.724-27zm4.392 15.3c1.8 0 2.664-1.548 3.852-7.272.324-1.584.468-2.772.468-3.636 0-2.16-.864-2.592-2.016-2.592-.684 0-1.368.288-2.052.756L104.8 31.688c.864.648 1.764.648 2.34.648zm21.636-15.3h5.184l-2.592 12.24c-.072.396-.144.792-.144 1.116 0 .792.36 1.368 1.8 1.368s3.312-2.016 4.752-3.168H139c-1.656 1.656-5.724 6.444-8.532 6.444-2.448 0-4.104-.936-4.428-3.024-1.692 1.584-3.636 3.024-5.184 3.024-2.772 0-4.5-1.224-4.5-3.924 0-.54.072-1.152.216-1.836l2.592-12.24h5.184l-2.592 12.24c-.072.396-.144.792-.144 1.116 0 .792.36 1.368 1.8 1.368.756 0 1.656-.576 2.556-1.296.036-.36.108-.756.216-1.188l2.592-12.24zm10.8-6.48l5.328-.72-4.14 19.44c-.108.54-.18.864-.18 1.152 0 .792.396 1.332 1.8 1.332 1.44 0 3.312-2.016 4.752-3.168h1.224c-1.656 1.656-5.724 6.444-8.532 6.444-2.772 0-4.464-1.224-4.464-3.924 0-.54.072-1.152.216-1.836l3.996-18.72zm17.712 6.48h5.184l-2.592 12.24c-.072.396-.144.792-.144 1.116 0 .792.36 1.368 1.8 1.368s3.312-2.016 4.752-3.168h1.224c-1.656 1.656-5.724 6.444-8.532 6.444-2.34 0-3.924-.864-4.392-2.736-1.08 1.476-2.7 2.952-4.896 2.952-3.456 0-4.464-2.448-4.464-4.572 0-6.192 2.232-13.608 9.432-13.608.864 0 1.764.36 2.412.9l.216-.936zm-2.34 2.052c-2.7 0-4.86 5.724-4.86 10.62 0 2.16 1.188 2.556 2.088 2.556.828 0 1.62-.792 2.304-1.8.036-.36.108-.756.216-1.188l2.016-9.54a2.687 2.687 0 0 0-1.764-.648zm11.7-2.052h5.184l-.396 1.8c1.296-1.008 2.736-1.8 4.248-1.8 1.62 0 2.592.936 2.592 2.304 0 1.26-.936 2.808-2.7 2.808-2.016 0-1.008-2.376-2.088-2.376s-1.656.396-2.484 1.152l-2.988 14.112h-5.184l3.816-18z"/>
        <g>
            <mask id="b" fill="#fff">
                <use xlink:href="#a"/>
            </mask>
            <use fill="#6672FF" fill-rule="nonzero" xlink:href="#a"/>
            <circle cx="21" cy="13" r="21" fill="#7681FF" fill-rule="nonzero" mask="url(#b)"/>
            <circle cx="32" cy="21" r="21" fill="#939CFF" fill-rule="nonzero" mask="url(#b)"/>
            <path fill="#FFF" d="M36.632 24.644l-.252 1.296-1.692.18-2.52 11.916h-5.184l2.412-11.412c-2.088.216-4.176.36-6.228.468-1.8 4.896-2.916 9.972-2.916 12.996 0 1.836.468 1.692.504 2.016-2.484-.144-4.824-.216-4.824-4.032 0-2.412 1.296-6.516 3.384-10.8H17.48c-4.572 0-6.48-1.764-6.48-3.312 0-2.88 4.5-3.24 6.228-3.24 1.944 0 3.636.324 5.256.864C26.12 15.86 30.728 11 34.94 11c.864 0 2.016.18 2.88.54l-2.844 13.32c.54-.072 1.08-.144 1.656-.216zM25.04 22.628a87.246 87.246 0 0 1 4.284 2.304l.36.216 2.484-11.664c-2.556 1.116-5.076 4.788-7.128 9.144zm-3.096-.216c-1.224-.36-2.412-.576-3.384-.576-2.808 0-4.5.648-4.5 1.8 0 1.008 1.476 2.016 4.608 2.016h1.44a73.806 73.806 0 0 1 1.836-3.24zm2.736.972l-.936 2.232c1.728-.036 3.42-.108 5.184-.216a45.344 45.344 0 0 0-4.248-2.016z" mask="url(#b)"/>
        </g>
    </g>
</svg>
