<svg xmlns="http://www.w3.org/2000/svg" xmlns:xlink="http://www.w3.org/1999/xlink" width="138" height="41" viewBox="0 0 138 41">
    <defs>
        <circle id="a" cx="20.5" cy="20.5" r="20.5"/>
    </defs>
    <g fill="none" fill-rule="evenodd">
        <path fill="#FFF" d="M64.82 16.601l-.196 1.007-1.308.14-1.948 9.259h-4.009l1.865-8.867c-1.614.168-3.229.28-4.815.363-1.392 3.805-2.255 7.749-2.255 10.098 0 1.427.362 1.315.39 1.567-1.921-.112-3.73-.168-3.73-3.133 0-1.874 1.002-5.063 2.616-8.392h-1.42c-3.535 0-5.01-1.37-5.01-2.573 0-2.238 3.48-2.518 4.816-2.518 1.503 0 2.811.252 4.064.672C56.69 9.776 60.254 6 63.51 6c.669 0 1.56.14 2.228.42l-2.2 10.35c.418-.057.836-.113 1.281-.169zm-8.964-1.566a67.354 67.354 0 0 1 3.313 1.79l.278.168 1.92-9.063c-1.976.867-3.924 3.72-5.511 7.105zm-2.394-.168c-.946-.28-1.865-.447-2.616-.447-2.172 0-3.48.503-3.48 1.398 0 .783 1.141 1.567 3.563 1.567h1.114c.445-.84.918-1.679 1.42-2.518zm2.116.755l-.724 1.735a98.035 98.035 0 0 0 4.008-.168 34.985 34.985 0 0 0-3.284-1.567zm11.357-2.601h4.008l-.111.531a4.205 4.205 0 0 1 1.948-.503c2.895 0 4.26 1.035 4.26 3.916 0 .587-.056 1.23-.168 1.958-.863 6.014-3.257 8.056-6.096 8.056-.918 0-1.781-.308-2.616-.84l-1.448 6.854L62.51 34l4.426-20.979zm3.396 11.888c1.392 0 2.06-1.203 2.978-5.65.25-1.231.362-2.154.362-2.825 0-1.679-.668-2.014-1.559-2.014-.529 0-1.058.223-1.586.587l-2.005 9.399c.668.503 1.364.503 1.81.503zm9.27-11.888h4.008l-.112.531a4.205 4.205 0 0 1 1.949-.503c2.895 0 4.259 1.035 4.259 3.916 0 .587-.056 1.23-.167 1.958-.863 6.014-3.257 8.056-6.097 8.056-.918 0-1.781-.308-2.616-.84l-1.448 6.854L75.174 34 79.6 13.021zm3.395 11.888c1.392 0 2.06-1.203 2.979-5.65.25-1.231.361-2.154.361-2.825 0-1.679-.668-2.014-1.558-2.014-.53 0-1.058.223-1.587.587l-2.004 9.399c.668.503 1.364.503 1.81.503zm16.73-11.888h4.008l-2.004 9.51c-.056.308-.112.616-.112.868 0 .615.279 1.063 1.392 1.063 1.114 0 2.561-1.567 3.675-2.462h.946c-1.28 1.287-4.426 5.007-6.597 5.007-1.893 0-3.173-.727-3.424-2.35-1.308 1.231-2.811 2.35-4.008 2.35-2.144 0-3.48-.951-3.48-3.049 0-.42.056-.895.167-1.427l2.004-9.51h4.009l-2.004 9.51c-.056.308-.112.616-.112.868 0 .615.279 1.063 1.392 1.063.585 0 1.28-.448 1.976-1.007.028-.28.084-.588.167-.924l2.005-9.51zm8.35-5.035l4.12-.56-3.201 15.105c-.084.42-.14.672-.14.896 0 .615.307 1.035 1.393 1.035 1.113 0 2.56-1.567 3.674-2.462h.946c-1.28 1.287-4.426 5.007-6.597 5.007-2.143 0-3.451-.951-3.451-3.049 0-.42.055-.895.167-1.427l3.09-14.545zm13.696 5.035h4.008l-2.004 9.51c-.056.308-.112.616-.112.868 0 .615.279 1.063 1.392 1.063 1.114 0 2.561-1.567 3.675-2.462h.946c-1.28 1.287-4.426 5.007-6.597 5.007-1.81 0-3.034-.671-3.396-2.126-.835 1.147-2.088 2.294-3.786 2.294-2.672 0-3.451-1.902-3.451-3.553 0-4.81 1.725-10.573 7.293-10.573.668 0 1.364.28 1.865.7l.167-.728zm-1.81 1.594c-2.087 0-3.758 4.448-3.758 8.252 0 1.678.919 1.986 1.615 1.986.64 0 1.253-.615 1.781-1.398.028-.28.084-.588.167-.924l1.56-7.412a2.072 2.072 0 0 0-1.365-.504zm9.047-1.594h4.008l-.306 1.399c1.002-.784 2.116-1.399 3.285-1.399 1.252 0 2.004.727 2.004 1.79 0 .98-.724 2.182-2.088 2.182-1.559 0-.78-1.846-1.614-1.846-.835 0-1.28.308-1.92.895l-2.311 10.965h-4.009l2.951-13.986z"/>
        <g>
            <mask id="b" fill="#fff">
                <use xlink:href="#a"/>
            </mask>
            <use fill="#6672FF" fill-rule="nonzero" xlink:href="#a"/>
            <circle cx="16.245" cy="10.057" r="16.245" fill="#7681FF" fill-rule="nonzero" mask="url(#b)"/>
            <circle cx="24.755" cy="16.245" r="16.245" fill="#939CFF" fill-rule="nonzero" mask="url(#b)"/>
            <path fill="#FFF" d="M28.338 19.064l-.195 1.003-1.309.139-1.95 9.218h-4.01l1.866-8.828c-1.615.167-3.23.278-4.818.362-1.392 3.787-2.255 7.714-2.255 10.053 0 1.42.362 1.31.39 1.56-1.922-.111-3.732-.167-3.732-3.12 0-1.865 1.002-5.04 2.618-8.354h-1.42c-3.538 0-5.014-1.364-5.014-2.562 0-2.228 3.482-2.506 4.818-2.506 1.504 0 2.813.25 4.066.668 2.813-4.428 6.378-8.188 9.636-8.188.668 0 1.56.14 2.228.418l-2.2 10.304c.418-.055.835-.111 1.281-.167zm-8.967-1.56a67.492 67.492 0 0 1 3.314 1.783l.278.167 1.922-9.023c-1.978.863-3.927 3.704-5.514 7.074zm-2.395-.166c-.947-.279-1.866-.446-2.618-.446-2.172 0-3.481.501-3.481 1.392 0 .78 1.141 1.56 3.564 1.56h1.114c.446-.835.92-1.67 1.42-2.506zm2.116.752l-.724 1.726a98.557 98.557 0 0 0 4.01-.167 35.078 35.078 0 0 0-3.286-1.56z" mask="url(#b)"/>
        </g>
    </g>
</svg>
